<?xml version="1.0" standalone="no"?>
<!DOCTYPE svg PUBLIC "-//W3C//DTD SVG 20010904//EN"
 "http://www.w3.org/TR/2001/REC-SVG-20010904/DTD/svg10.dtd">
<svg version="1.0" xmlns="http://www.w3.org/2000/svg"
 width="497.000000pt" height="497.000000pt" viewBox="0 0 497.000000 497.000000"
 preserveAspectRatio="xMidYMid meet">

<g transform="translate(0.000000,497.000000) scale(0.100000,-0.100000)"
fill="#000000" stroke="none">
<path d="M2250 4960 c-305 -32 -582 -111 -855 -244 -249 -122 -468 -279 -666
-476 -380 -379 -622 -862 -706 -1410 -24 -161 -24 -529 0 -690 69 -446 243
-851 517 -1202 83 -107 291 -315 398 -398 305 -238 650 -402 1018 -484 293
-65 647 -73 951 -21 239 41 437 107 678 224 555 272 982 736 1214 1317 166
419 214 917 130 1364 -142 753 -630 1407 -1311 1756 -246 126 -499 206 -778
249 -124 19 -468 28 -590 15z m468 -210 c337 -37 650 -141 932 -310 58 -34
110 -63 115 -63 6 0 48 26 93 57 45 32 82 54 82 49 0 -4 -14 -50 -30 -102
l-30 -95 37 -30 c204 -167 384 -374 516 -591 210 -347 314 -705 324 -1120 6
-223 -8 -374 -52 -571 -14 -60 -25 -113 -25 -119 0 -6 36 -38 81 -71 l81 -59
-105 -3 -105 -3 -32 -82 c-45 -114 -140 -294 -215 -408 -387 -582 -997 -945
-1700 -1012 l-129 -12 -35 -99 c-19 -55 -37 -95 -39 -90 -2 5 -18 49 -35 99
l-32 90 -134 13 c-857 80 -1593 629 -1910 1422 l-30 75 -106 5 -106 5 84 63
85 62 -19 73 c-50 193 -63 312 -63 557 -1 144 4 266 12 315 87 539 306 966
678 1325 55 53 118 112 142 131 l43 34 -31 99 c-17 55 -29 101 -27 102 2 2 30
-16 63 -39 118 -86 107 -83 156 -49 252 172 645 312 983 350 114 13 369 14
483 2z"/>
<path d="M1162 4300 c3 -8 110 -339 238 -735 128 -396 236 -723 240 -728 3 -4
38 16 77 44 l71 51 -24 76 c-13 43 -80 248 -148 457 -68 209 -122 382 -121
384 2 1 348 -247 769 -553 421 -306 769 -556 773 -556 5 0 20 37 34 83 l25 83
-914 665 c-1091 793 -1027 747 -1020 729z"/>
<path d="M3204 3872 c-330 -240 -613 -446 -628 -458 l-29 -21 72 -51 c39 -29
73 -52 75 -52 3 0 179 126 391 281 213 155 388 279 390 277 2 -2 -127 -404
-286 -893 -159 -490 -292 -898 -295 -908 -5 -16 2 -18 87 -15 l92 3 369 1134
c202 624 367 1135 365 1137 -1 1 -272 -194 -603 -434z"/>
<path d="M1307 2494 l-969 -704 782 0 c622 0 781 3 777 13 -2 6 -15 45 -28 84
l-23 73 -485 2 -485 3 769 559 c424 308 772 561 774 563 5 4 -9 14 -89 71
l-55 39 -968 -703z"/>
<path d="M3337 2618 c-14 -45 -25 -83 -24 -84 1 -1 153 -111 337 -245 184
-133 360 -261 390 -283 l55 -41 -956 -5 -955 -5 24 -82 25 -83 1200 0 1200 0
-626 455 c-344 250 -630 455 -634 455 -5 0 -21 -37 -36 -82z"/>
<path d="M1818 2563 c-37 -27 -68 -53 -68 -60 0 -10 729 -2264 734 -2270 2 -2
110 327 241 730 130 402 240 738 243 745 3 10 -16 12 -88 10 l-93 -3 -33 -100
c-18 -55 -85 -262 -150 -459 -70 -219 -119 -354 -124 -345 -4 8 -137 416 -296
906 -159 491 -291 893 -294 893 -3 0 -35 -21 -72 -47z"/>
</g>
</svg>
